<svg width="172" height="172" viewBox="0 0 172 172" fill="none" xmlns="http://www.w3.org/2000/svg">
<path d="M86 172C133.496 172 172 133.496 172 86C172 38.5035 133.496 0 86 0C38.5035 0 0 38.5035 0 86C0 133.496 38.5035 172 86 172Z" fill="url(#paint0_linear_288_362)"/>
<path d="M86 172C133.496 172 172 133.496 172 86C172 38.5035 133.496 0 86 0C38.5035 0 0 38.5035 0 86C0 133.496 38.5035 172 86 172Z" fill="url(#paint1_radial_288_362)"/>
<path opacity="0.95" d="M87 146C63.89 135.304 47.5771 117.922 50.2959 100.54C53.0147 83.1587 70.6871 77.8105 87 88.5069C103.313 77.8105 120.985 83.1587 123.704 100.54C126.423 117.922 110.11 135.304 87 146Z" fill="white"/>
<path opacity="0.95" d="M50.5835 87.9378C57.4743 85.1537 60.1264 75.6349 56.5071 66.6768C52.8878 57.7188 44.3677 52.7138 37.4769 55.4978C30.5861 58.2819 27.934 67.8008 31.5533 76.7588C35.1726 85.7169 43.6927 90.7219 50.5835 87.9378Z" fill="white"/>
<path opacity="0.95" d="M72.2249 73.3669C79.6015 72.4612 84.6269 63.9531 83.4494 54.3635C82.272 44.774 75.3375 37.7343 67.961 38.6401C60.5844 39.5458 55.559 48.0539 56.7365 57.6434C57.9139 67.233 64.8483 74.2726 72.2249 73.3669Z" fill="white"/>
<path opacity="0.95" d="M98.9129 73.3668C106.289 74.2725 113.224 67.2329 114.401 57.6434C115.579 48.0538 110.553 39.5457 103.177 38.64C95.8002 37.7342 88.8658 44.7739 87.6884 54.3634C86.5109 63.953 91.5363 72.4611 98.9129 73.3668Z" fill="white"/>
<path opacity="0.95" d="M122.255 87.9378C129.146 90.7218 137.666 85.7168 141.285 76.7588C144.905 67.8007 142.252 58.2819 135.362 55.4978C128.471 52.7137 119.951 57.7187 116.331 66.6768C112.712 75.6348 115.364 85.1537 122.255 87.9378Z" fill="white"/>
<mask id="mask0_288_362" style="mask-type:luminance" maskUnits="userSpaceOnUse" x="0" y="0" width="172" height="172">
<path d="M86 172C133.496 172 172 133.496 172 86C172 38.5035 133.496 0 86 0C38.5035 0 0 38.5035 0 86C0 133.496 38.5035 172 86 172Z" fill="white"/>
</mask>
<g mask="url(#mask0_288_362)">
<path opacity="0.8" d="M0 124H22L34 108L46 140L58 92L71 128L84 124H108H122H146H161H172" stroke="#00D4B8" stroke-width="3.2" stroke-linecap="round" stroke-linejoin="round"/>
</g>
<mask id="mask1_288_362" style="mask-type:luminance" maskUnits="userSpaceOnUse" x="0" y="0" width="172" height="172">
<path d="M86 172C133.496 172 172 133.496 172 86C172 38.5035 133.496 0 86 0C38.5035 0 0 38.5035 0 86C0 133.496 38.5035 172 86 172Z" fill="white"/>
</mask>
<g mask="url(#mask1_288_362)">
<path opacity="0.8" d="M0 124H22L34 108L46 140L58 92L71 128L84 124H108H122H146H161H172" stroke="#00D4B8" stroke-width="3.2" stroke-linecap="round" stroke-linejoin="round"/>
</g>
<defs>
<linearGradient id="paint0_linear_288_362" x1="0" y1="0" x2="172" y2="172" gradientUnits="userSpaceOnUse">
<stop stop-color="#0E4FA0"/>
<stop offset="1" stop-color="#00C2A8"/>
</linearGradient>
<radialGradient id="paint1_radial_288_362" cx="0" cy="0" r="1" gradientUnits="userSpaceOnUse" gradientTransform="translate(86 65.36) scale(103.2)">
<stop stop-color="white" stop-opacity="0.22"/>
<stop offset="1" stop-color="white" stop-opacity="0"/>
</radialGradient>
</defs>
</svg>
